<?xml version="1.0" encoding="utf-8"?>
<!-- Generator: Adobe Illustrator 25.4.1, SVG Export Plug-In . SVG Version: 6.00 Build 0)  -->
<svg version="1.1" id="Capa_1" xmlns="http://www.w3.org/2000/svg" xmlns:xlink="http://www.w3.org/1999/xlink" x="0px" y="0px"
	 viewBox="0 0 29.1 28.2" style="enable-background:new 0 0 29.1 28.2;" xml:space="preserve">
<style type="text/css">
	.st0{fill:#D02F2D;}
</style>
<g>
	<path class="st0" d="M5.6,20.2c-1.7,0-3.1-1.4-3.1-3.1c0-1.7,1.4-3.1,3.1-3.1s3.1,1.4,3.1,3.1C8.6,18.9,7.3,20.2,5.6,20.2z
		 M5.6,16.2c-0.5,0-1,0.4-1,1s0.4,1,1,1c0.5,0,1-0.4,1-1S6.1,16.2,5.6,16.2z"/>
	<path class="st0" d="M9.7,28.2H7.5v-4.4c0-0.3-0.3-0.6-0.6-0.6H4.2c-0.3,0-0.6,0.3-0.6,0.6v4.4H1.5v-4.4c0-1.5,1.2-2.7,2.7-2.7h2.7
		c1.5,0,2.7,1.2,2.7,2.7V28.2z"/>
	<path class="st0" d="M14.6,20.2c-1.7,0-3.1-1.4-3.1-3.1c0-1.7,1.4-3.1,3.1-3.1s3.1,1.4,3.1,3.1C17.6,18.9,16.2,20.2,14.6,20.2z
		 M14.6,16.2c-0.5,0-1,0.4-1,1s0.4,1,1,1s1-0.4,1-1S15.1,16.2,14.6,16.2z"/>
	<path class="st0" d="M18.7,28.2h-2.1v-4.4c0-0.3-0.3-0.6-0.6-0.6h-2.7c-0.3,0-0.6,0.3-0.6,0.6v4.4h-2.1v-4.4c0-1.5,1.2-2.7,2.7-2.7
		h2.7c1.5,0,2.7,1.2,2.7,2.7V28.2z"/>
	<path class="st0" d="M9.5,8.5c-1.7,0-3.1-1.4-3.1-3.1s1.4-3.1,3.1-3.1s3.1,1.4,3.1,3.1S11.2,8.5,9.5,8.5z M9.5,4.4
		c-0.5,0-1,0.4-1,1s0.4,1,1,1s1-0.4,1-1S10,4.4,9.5,4.4z"/>
	<path class="st0" d="M13.6,13.2h-2.1V12c0-0.3-0.3-0.6-0.6-0.6H8.1c-0.3,0-0.6,0.3-0.6,0.6v1.2H5.4V12c0-1.5,1.2-2.7,2.7-2.7h2.7
		c1.5,0,2.7,1.2,2.7,2.7V13.2z"/>
	<path class="st0" d="M19.6,8.5c-1.7,0-3.1-1.4-3.1-3.1s1.4-3.1,3.1-3.1s3.1,1.4,3.1,3.1S21.3,8.5,19.6,8.5z M19.6,4.4
		c-0.5,0-1,0.4-1,1s0.4,1,1,1s1-0.4,1-1S20.1,4.4,19.6,4.4z"/>
	<path class="st0" d="M23.7,13.2h-2.1V12c0-0.3-0.3-0.6-0.6-0.6h-2.7c-0.3,0-0.6,0.3-0.6,0.6v1.2h-2.1V12c0-1.5,1.2-2.7,2.7-2.7H21
		c1.5,0,2.7,1.2,2.7,2.7V13.2z"/>
	<path class="st0" d="M23.5,20.2c-1.7,0-3.1-1.4-3.1-3.1c0-1.7,1.4-3.1,3.1-3.1s3.1,1.4,3.1,3.1C26.6,18.9,25.2,20.2,23.5,20.2z
		 M23.5,16.2c-0.5,0-1,0.4-1,1s0.4,1,1,1s1-0.4,1-1S24.1,16.2,23.5,16.2z"/>
	<path class="st0" d="M27.6,28.2h-2.1v-4.4c0-0.3-0.3-0.6-0.6-0.6h-2.7c-0.3,0-0.6,0.3-0.6,0.6v4.4h-2.1v-4.4c0-1.5,1.2-2.7,2.7-2.7
		h2.7c1.5,0,2.7,1.2,2.7,2.7V28.2z"/>
</g>
</svg>
