<?xml version="1.0" encoding="utf-8"?>
<!-- Generator: Adobe Illustrator 22.0.0, SVG Export Plug-In . SVG Version: 6.00 Build 0)  -->
<svg version="1.1" id="Capa_1" xmlns="http://www.w3.org/2000/svg" xmlns:xlink="http://www.w3.org/1999/xlink" x="0px" y="0px"
	 viewBox="0 0 29.1 28.2" style="enable-background:new 0 0 29.1 28.2;" xml:space="preserve">
<style type="text/css">
	.st0{fill:#CC3333;}
</style>
<g>
	<path class="st0" d="M25.1,8.7c0.5-1.3,0.2-2.9,0.2-2.9S24,5.6,22.7,6c-2.2-1.9-5-3-8.1-3C7.6,3,1.9,8.6,1.9,15.6
		s5.7,12.6,12.6,12.6s12.6-5.7,12.6-12.6C27.2,13.1,26.4,10.7,25.1,8.7z M14.5,26.1C8.7,26.1,4,21.4,4,15.6C4,9.8,8.7,5.1,14.5,5.1
		c2.4,0,4.6,0.8,6.3,2.1c-0.7,0.8-1,1.8-1,2.5L9.7,19.9l1.5,1.5l10.2-10.2c0.7,0,1.5-0.2,2.3-0.8c0.9,1.5,1.4,3.3,1.4,5.1
		C25,21.4,20.3,26.1,14.5,26.1z"/>
	<circle class="st0" cx="7.3" cy="15.6" r="1.9"/>
	<circle class="st0" cx="9.4" cy="10.5" r="1.9"/>
	<circle class="st0" cx="14.5" cy="8.3" r="1.9"/>
</g>
</svg>
