<?xml version="1.0" encoding="utf-8"?>
<!-- Generator: Adobe Illustrator 22.0.0, SVG Export Plug-In . SVG Version: 6.00 Build 0)  -->
<svg version="1.1" id="Capa_1" xmlns="http://www.w3.org/2000/svg" xmlns:xlink="http://www.w3.org/1999/xlink" x="0px" y="0px"
	 viewBox="0 0 29.1 28.2" style="enable-background:new 0 0 29.1 28.2;" xml:space="preserve">
<style type="text/css">
	.st0{fill:#FFFFFF;}
	.st1{fill:#CC3333;}
</style>
<g>
	<line class="st0" x1="4.4" y1="16" x2="4.4" y2="28.2"/>
	<g>
		<path class="st1" d="M28.7,6.8l-8.2-6.8l-8.2,6.8h11.5v9.8L12.2,7L0.3,16.8h3v11.4h2.1V16.8H19v11.4h2.1V16.8h2.7v11.4H26V6.8
			H28.7z M6.2,14.7l6-4.9l6,4.9H6.2z M18.3,4.7l2.3-1.9l2.3,1.9H18.3z"/>
		<polygon class="st1" points="9.2,28.2 11.3,28.2 11.3,24.1 13.4,24.1 13.4,28.2 15.5,28.2 15.5,22 9.2,22 		"/>
	</g>
</g>
</svg>
