<?xml version="1.0" encoding="utf-8"?>
<!-- Generator: Adobe Illustrator 22.0.0, SVG Export Plug-In . SVG Version: 6.00 Build 0)  -->
<svg version="1.1" id="Capa_1" xmlns="http://www.w3.org/2000/svg" xmlns:xlink="http://www.w3.org/1999/xlink" x="0px" y="0px"
	 viewBox="0 0 29.1 28.2" style="enable-background:new 0 0 29.1 28.2;" xml:space="preserve">
<style type="text/css">
	.st0{fill:#CC3333;}
</style>
<g>
	<polygon class="st0" points="15.6,11.7 13.5,11.7 13.5,15.3 9.8,15.3 9.8,17.5 13.5,17.5 13.5,21.1 15.6,21.1 15.6,17.5 19.2,17.5 
		19.2,15.3 15.6,15.3 	"/>
	<path class="st0" d="M19.6,5.2c-2,0-3.8,0.8-5.1,2c-1.3-1.3-3.1-2-5.1-2c-4.1,0-7.5,3.3-7.5,7.5c0,2,0.8,3.8,2,5.1l0,0l10.5,10.5
		l9.4-9.4c1.5-1.4,3.2-3.6,3.2-6.2C27.1,8.5,23.8,5.2,19.6,5.2z M22.4,17.2L22.4,17.2L22.4,17.2l-8,8l-8.7-8.7l-0.2-0.2
		c-0.9-1-1.5-2.3-1.5-3.7c0-3,2.4-5.4,5.4-5.4c1.4,0,2.7,0.5,3.7,1.5l1.5,1.4L16,8.7c1-0.9,2.3-1.5,3.7-1.5c3,0,5.4,2.4,5.4,5.4
		C25,14.7,23.2,16.5,22.4,17.2z"/>
</g>
</svg>
