<?xml version="1.0" encoding="utf-8"?>
<!-- Generator: Adobe Illustrator 25.4.1, SVG Export Plug-In . SVG Version: 6.00 Build 0)  -->
<svg version="1.1" id="Capa_1" xmlns="http://www.w3.org/2000/svg" xmlns:xlink="http://www.w3.org/1999/xlink" x="0px" y="0px"
	 viewBox="0 0 29.1 28.2" style="enable-background:new 0 0 29.1 28.2;" xml:space="preserve">
<style type="text/css">
	.st0{fill:#D02F2D;}
</style>
<g>
	<path class="st0" d="M22.1,7.6c-0.3,0-0.6,0.1-0.9,0.2v0c0-1.6-1.3-2.9-2.9-2.9c-0.4,0-0.8,0.1-1.1,0.2c-0.4-1-1.5-1.7-2.6-1.7
		c-1.2,0-2.2,0.7-2.6,1.7c-0.3-0.1-0.7-0.2-1.1-0.2c-1.6,0-2.9,1.3-2.9,2.9v2.1C7.1,9.3,6.2,8.9,5.2,8.9h-1v13.2h2v-11
		c1,0.4,1.8,1.4,1.8,2.6v3.4h2v-3.4v-6c0-0.5,0.4-0.9,0.9-0.9c0.5,0,0.9,0.4,0.9,0.9v8.4h2V7.7V6.2c0-0.5,0.4-0.9,0.9-0.9
		s0.9,0.4,0.9,0.9v1.5v8.4h2V7.7c0-0.5,0.4-0.9,0.9-0.9c0.5,0,0.9,0.4,0.9,0.9v2.8v6.7h2v-6.7c0-0.5,0.4-0.9,0.9-0.9
		s0.9,0.4,0.9,0.9v11.7h2V10.5C24.9,8.9,23.7,7.6,22.1,7.6z"/>
	<path class="st0" d="M15.8,19.7c-0.5,0.1-0.9,0.3-1.3,0.6c-0.6-0.5-1.4-0.7-2.2-0.6c-0.9,0.1-1.6,0.6-2.1,1.3
		c-0.5,0.8-0.6,1.7-0.4,2.6c0.2,0.6,0.5,1.1,1,1.6c0.4,0.4,0.9,0.8,1.4,1.2c0.4,0.3,0.8,0.7,1.2,1l1.1,0.8l0.6-0.4l0.7-0.5
		c0.5-0.4,1.1-0.8,1.6-1.3c0.4-0.3,0.9-0.8,1.3-1.4c0.6-0.8,0.8-1.7,0.6-2.6C18.9,20.5,17.4,19.4,15.8,19.7z M17,23.5
		c-0.2,0.3-0.5,0.6-1,1c-0.5,0.4-1,0.8-1.5,1.2c-0.4-0.3-0.7-0.6-1.1-0.9c-0.4-0.4-0.9-0.7-1.3-1.1c-0.2-0.2-0.4-0.5-0.4-0.7
		c-0.1-0.3,0-0.6,0.1-0.9c0.2-0.2,0.4-0.4,0.7-0.4c0.1,0,0.1,0,0.2,0c0.3,0,0.5,0.1,0.8,0.5l0.1,0.1l0.8,1.2l0.8-1.2l0.1-0.1
		c0.3-0.4,0.5-0.5,0.7-0.6c0.5-0.1,1,0.3,1.1,0.8C17.4,22.8,17.3,23.1,17,23.5z"/>
</g>
</svg>
